HIERARCHY
ROOT Hips
{
	OFFSET 0.087024 0.170656 0.121973
	CHANNELS 6 Xposition Yposition Zposition Zrotation Yrotation Xrotation 
	JOINT LHipJoint
	{
		OFFSET 0.043757 -0.008208 -0.051712
		CHANNELS 3 Zrotation Yrotation Xrotation
		JOINT LeftUpLeg
		{
			OFFSET -0.051720 -0.037055 -0.039212
			CHANNELS 3 Zrotation Yrotation Xrotation
			JOINT LeftLeg
			{
				OFFSET -0.064425 -0.048196 -0.004938
				CHANNELS 3 Zrotation Yrotation Xrotation
				JOINT LeftFoot
				{
					OFFSET 0.056942 0.052443 0.055042
					CHANNELS 3 Zrotation Yrotation Xrotation
					JOINT LeftToeBase
					{
						OFFSET 0.044784 0.040458 0.012563
						CHANNELS 3 Zrotation Yrotation Xrotation
						End Site
						{
							OFFSET 0.000000 0.000000 0.000000
						}
					}
				}
			}
		}
	}
	JOINT RHipJoint
	{
		OFFSET 0.013444 -0.001037 0.023011
		CHANNELS 3 Zrotation Yrotation Xrotation
		JOINT RightUpLeg
		{
			OFFSET 0.039603 0.042154 0.081545
			CHANNELS 3 Zrotation Yrotation Xrotation
			JOINT RightLeg
			{
				OFFSET -0.000337 -0.001493 -0.009569
				CHANNELS 3 Zrotation Yrotation Xrotation
				JOINT RightFoot
				{
					OFFSET -0.064209 -0.118356 -0.081438
					CHANNELS 3 Zrotation Yrotation Xrotation
					JOINT RightToeBase
					{
						OFFSET -0.115655 -0.111903 -0.108134
						CHANNELS 3 Zrotation Yrotation Xrotation
						End Site
						{
							OFFSET 0.000000 0.000000 0.000000
						}
					}
				}
			}
		}
	}
	JOINT LowerBack
	{
		OFFSET -0.256469 -0.243569 -0.258896
		CHANNELS 3 Zrotation Yrotation Xrotation
		JOINT Spine
		{
			OFFSET -0.257443 -0.162367 -0.139177
			CHANNELS 3 Zrotation Yrotation Xrotation
			JOINT Spine1
			{
				OFFSET -0.124574 -0.021809 -0.062074
				CHANNELS 3 Zrotation Yrotation Xrotation
				JOINT Neck
				{
					OFFSET -0.086709 -0.042731 -0.067268
					CHANNELS 3 Zrotation Yrotation Xrotation
					JOINT Neck1
					{
						OFFSET -0.022269 -0.013586 -0.077152
						CHANNELS 3 Zrotation Yrotation Xrotation
						JOINT Head
						{
							OFFSET -0.010387 -0.098280 -0.081725
							CHANNELS 3 Zrotation Yrotation Xrotation
							End Site
							{
								OFFSET 0.000000 0.000000 0.000000
							}
						}
					}
				}
				JOINT LeftShoulder
				{
					OFFSET -0.070386 -0.051946 -0.071677
					CHANNELS 3 Zrotation Yrotation Xrotation
					JOINT LeftArm
					{
						OFFSET -0.097119 -0.123218 -0.133602
						CHANNELS 3 Zrotation Yrotation Xrotation
						JOINT LeftForeArm
						{
							OFFSET -0.108488 -0.108324 0.001814
							CHANNELS 3 Zrotation Yrotation Xrotation
							JOINT LeftHand
							{
								OFFSET 0.007570 0.038242 0.005234
								CHANNELS 3 Zrotation Yrotation Xrotation
								JOINT LeftFingerBase
								{
									OFFSET -0.020444 0.023316 0.014864
									CHANNELS 3 Zrotation Yrotation Xrotation
									JOINT LeftHandIndex1
									{
										OFFSET 0.044631 0.058474 -0.003933
										CHANNELS 3 Zrotation Yrotation Xrotation
										End Site
										{
											OFFSET 0.000000 0.000000 0.000000
										}
									}
								}
								JOINT LThumb
								{
									OFFSET 0.081595 0.091711 0.153746
									CHANNELS 3 Zrotation Yrotation Xrotation
									End Site
									{
										OFFSET 0.000000 0.000000 0.000000
									}
								}
							}
						}
					}
				}
				JOINT RightShoulder
				{
					OFFSET 0.157487 0.129570 0.128309
					CHANNELS 3 Zrotation Yrotation Xrotation
					JOINT RightArm
					{
						OFFSET 0.133177 0.137603 0.128341
						CHANNELS 3 Zrotation Yrotation Xrotation
						JOINT RightForeArm
						{
							OFFSET 0.106733 0.100900 0.047816
							CHANNELS 3 Zrotation Yrotation Xrotation
							JOINT RightHand
							{
								OFFSET 0.043668 0.042144 0.008010
								CHANNELS 3 Zrotation Yrotation Xrotation
								JOINT RightFingerBase
								{
									OFFSET 0.015881 -0.020255 -0.006153
									CHANNELS 3 Zrotation Yrotation Xrotation
									JOINT RightHandIndex1
									{
										OFFSET -0.027647 -0.050586 -0.070910
										CHANNELS 3 Zrotation Yrotation Xrotation
										End Site
										{
											OFFSET 0.000000 0.000000 0.000000
										}
									}
								}
								JOINT RThumb
								{
									OFFSET -0.050735 -0.001523 -0.022222
									CHANNELS 3 Zrotation Yrotation Xrotation
									End Site
									{
										OFFSET -0.036782 -0.070844 -0.023754
									}
								}
							}
						}
					}
				}
			}
		}
	}
}
MOTION
Frames: 12
Frame Time: 0.008333
0.193514 0.282262 0.293029 0.449930 0.328297 0.317064 0.206098 -0.019688 0.093307 -0.017931 -0.028243 0.100924 0.078432 -0.006864 0.016726 -0.190470 -0.292358 -0.264256 -0.219514 -0.309723 -0.113450 -0.215667 -0.091252 0.010778 0.005772 -0.058211 -0.094160 -0.117883 -0.119078 0.090315 0.021755 0.087049 -0.015008 0.107744 0.157460 0.298971 0.300936 0.409196 0.255745 0.161563 0.097691 0.147276 0.243949 0.224209 0.316427 0.300763 0.318904 0.198321 0.296448 0.335295 0.274072 0.309260 0.384438 0.303153 0.248668 0.286652 0.345236 0.104412 0.133416 0.357643 0.228797 0.260345 0.258284 0.130618 -0.010482 0.109726 0.030995 0.147354 0.103290 0.106088 0.164048 0.155918 0.192400 0.113776 0.144061 0.110939 -0.050058 0.067906 0.014869 0.143237 0.240643 0.221301 0.196931 0.128205 0.145990 0.198944 0.202646 0.261795 0.367316 0.220442 0.237181 0.192762 0.225706 0.292318 0.277388 0.303259
0.189984 0.298801 0.302423 0.466386 0.374231 0.354682 0.238287 0.004634 0.109238 -0.011692 -0.015734 0.095263 0.063149 -0.042853 -0.040483 -0.224965 -0.305106 -0.302050 -0.271322 -0.385322 -0.205591 -0.317564 -0.192418 -0.039494 -0.041031 -0.087813 -0.108128 -0.128368 -0.127720 0.054298 0.013591 0.102171 -0.005698 0.143813 0.175384 0.329048 0.347305 0.448171 0.289733 0.176995 0.133273 0.175839 0.243777 0.229299 0.311876 0.316713 0.354524 0.300960 0.415276 0.428448 0.391307 0.347502 0.378578 0.281231 0.253738 0.306769 0.376708 0.125741 0.165944 0.439184 0.346309 0.441932 0.401290 0.268541 0.144137 0.196567 0.137861 0.264791 0.171615 0.180574 0.219319 0.179743 0.197733 0.111134 0.155245 0.105985 -0.033115 0.092252 0.015157 0.142082 0.206308 0.199252 0.183246 0.076957 0.090890 0.136626 0.121193 0.194544 0.314394 0.219311 0.251217 0.222007 0.213557 0.268465 0.263245 0.291597
0.206659 0.288473 0.303431 0.503119 0.393820 0.373818 0.269809 0.073815 0.168730 0.063627 0.060777 0.051204 0.045694 -0.057136 -0.028219 -0.210378 -0.275011 -0.227214 -0.200676 -0.247030 -0.093888 -0.279932 -0.164408 0.006878 0.008823 -0.026123 -0.058372 -0.109295 -0.110875 0.039770 0.021375 0.131562 -0.002531 0.091329 0.127115 0.267927 0.297916 0.465946 0.303852 0.207068 0.148676 0.125640 0.178106 0.142236 0.270876 0.349197 0.373700 0.321656 0.396317 0.387250 0.399782 0.286793 0.313819 0.189420 0.144208 0.219305 0.301609 0.112887 0.138414 0.413024 0.296083 0.345194 0.305338 0.164333 0.101374 0.186543 0.108949 0.180078 0.076625 0.138222 0.187181 0.086681 0.090950 0.046223 0.110762 0.129385 -0.001759 0.132561 0.036681 0.198111 0.268967 0.215289 0.224009 0.132102 0.166446 0.197053 0.199293 0.238166 0.386168 0.401300 0.417586 0.342964 0.283620 0.318391 0.327682 0.337770
0.237514 0.304225 0.326759 0.527641 0.421845 0.392887 0.305595 0.153705 0.278516 0.174186 0.164061 0.160903 0.170368 0.071465 0.077245 -0.113501 -0.200016 -0.168156 -0.162275 -0.260899 -0.093855 -0.221375 -0.097392 0.022482 -0.019160 -0.044152 -0.070852 -0.050219 -0.055759 0.040471 0.034957 0.143700 0.031756 0.152568 0.173502 0.282260 0.318169 0.528222 0.402869 0.280263 0.213728 0.185702 0.222953 0.220810 0.376220 0.411499 0.399715 0.338075 0.425998 0.431492 0.456829 0.324597 0.316584 0.210811 0.132426 0.235598 0.354741 0.183936 0.204330 0.395180 0.260016 0.286882 0.264849 0.115835 0.046265 0.117009 0.053101 0.120021 -0.002708 0.093077 0.140833 0.060722 0.068412 0.021410 0.062189 0.094718 -0.058700 0.084494 0.013902 0.198676 0.292566 0.248552 0.237721 0.115240 0.189274 0.175302 0.201253 0.242716 0.377991 0.407023 0.443557 0.396455 0.337397 0.390725 0.408067 0.429993
0.247562 0.343479 0.353456 0.530532 0.428823 0.418496 0.350342 0.234915 0.337648 0.239526 0.225034 0.181042 0.215029 0.040073 0.057888 -0.065717 -0.143038 -0.089615 -0.120362 -0.241369 -0.071280 -0.189513 -0.038560 0.128902 0.084024 0.065246 0.037960 0.066360 0.063364 0.146264 0.103598 0.144553 0.076617 0.208884 0.222527 0.386257 0.365617 0.588360 0.483842 0.461672 0.394625 0.315847 0.388179 0.377521 0.511655 0.534784 0.495254 0.436461 0.570548 0.515292 0.543711 0.327345 0.296652 0.188989 0.089634 0.217648 0.315670 0.197214 0.210324 0.340210 0.192557 0.227749 0.238445 0.093446 0.019605 0.135868 0.083679 0.123559 0.045135 0.088667 0.158046 0.103394 0.111934 0.076602 0.088393 0.116198 -0.015506 0.115482 0.023761 0.170122 0.258734 0.213833 0.196375 0.134612 0.241104 0.227356 0.247236 0.274319 0.432161 0.487365 0.513464 0.448204 0.353718 0.399455 0.421334 0.410326
0.197098 0.306002 0.320115 0.476593 0.365016 0.349352 0.283716 0.160948 0.272391 0.161470 0.147118 0.095669 0.132695 -0.046168 -0.040385 -0.121321 -0.183827 -0.113821 -0.112250 -0.262989 -0.137970 -0.239986 -0.099365 0.083058 0.049232 0.045323 0.018945 0.072302 0.082169 0.210422 0.176569 0.186871 0.116695 0.202057 0.208203 0.381814 0.372150 0.582960 0.495620 0.484025 0.378187 0.265330 0.319240 0.309217 0.438427 0.447070 0.386833 0.352456 0.489457 0.447725 0.496416 0.259592 0.254816 0.176944 0.084491 0.241217 0.340284 0.231713 0.251046 0.332362 0.176801 0.127520 0.124786 -0.004683 -0.087068 0.072178 0.013656 0.059893 -0.035009 0.002444 0.069576 0.009662 0.038150 0.024757 0.036381 0.055903 -0.063410 0.061639 -0.018637 0.129668 0.222899 0.171461 0.136910 0.078589 0.171913 0.157144 0.202406 0.198857 0.344373 0.400323 0.414512 0.364431 0.275649 0.335663 0.356499 0.359042
0.195040 0.336798 0.302492 0.457412 0.418571 0.405505 0.356883 0.224025 0.291612 0.168253 0.173015 0.140647 0.178700 -0.012320 -0.041835 -0.101731 -0.120377 -0.037133 -0.037250 -0.202302 -0.118815 -0.222482 -0.107220 0.012086 -0.015085 -0.022338 -0.076812 -0.038091 -0.040458 0.129949 0.118444 0.197825 0.193140 0.248257 0.236208 0.449788 0.432257 0.640052 0.540619 0.517513 0.411424 0.319335 0.425719 0.411651 0.566166 0.540557 0.419961 0.360596 0.450880 0.433215 0.501893 0.340445 0.359583 0.301096 0.232061 0.354364 0.431539 0.378772 0.415141 0.449875 0.343738 0.272010 0.242351 0.132580 0.030181 0.155299 0.099540 0.138992 0.033794 0.050484 0.124799 0.082424 0.103164 0.038032 0.024427 0.006796 -0.075766 0.066322 0.004556 0.163493 0.255654 0.248386 0.238206 0.147504 0.209523 0.192245 0.236878 0.217971 0.304777 0.323049 0.388582 0.363777 0.270562 0.357832 0.349898 0.332884
0.235659 0.362112 0.327993 0.462960 0.414239 0.375639 0.326651 0.188478 0.241138 0.104685 0.114907 0.112862 0.169315 -0.024819 -0.058834 -0.099497 -0.128814 -0.027893 -0.024103 -0.201370 -0.116823 -0.190567 -0.132082 -0.033696 -0.067240 -0.059801 -0.123156 -0.129418 -0.103601 0.049072 0.023689 0.088361 0.026930 0.119430 0.111854 0.324907 0.312307 0.497818 0.428508 0.428362 0.343869 0.262466 0.377360 0.401063 0.549028 0.582648 0.498098 0.407683 0.452889 0.398987 0.434737 0.320849 0.374935 0.291635 0.257046 0.337995 0.387094 0.311917 0.333970 0.412502 0.339647 0.263454 0.258912 0.166046 0.075031 0.191428 0.132590 0.168820 0.042373 0.084925 0.163573 0.109043 0.148547 0.082051 0.072154 0.033124 -0.020923 0.082648 0.013012 0.173775 0.277076 0.280202 0.259250 0.157911 0.214521 0.191438 0.205904 0.205763 0.265271 0.305709 0.369795 0.348428 0.243110 0.312016 0.291962 0.278712
0.237006 0.353964 0.312119 0.439044 0.383040 0.336656 0.261509 0.081540 0.127523 -0.033130 -0.001038 0.106249 0.155324 -0.024593 -0.077833 -0.152729 -0.179007 -0.061237 0.020940 -0.131116 -0.036635 -0.083278 -0.072255 0.049380 0.055523 0.066646 -0.003611 -0.036080 -0.035921 0.074384 0.066981 0.184440 0.083009 0.157631 0.130304 0.281111 0.323261 0.556109 0.541848 0.496755 0.396363 0.344498 0.429964 0.429111 0.558486 0.578727 0.521327 0.433724 0.477331 0.383284 0.406114 0.380056 0.433718 0.414318 0.446349 0.440250 0.477889 0.373478 0.404470 0.458263 0.368031 0.379822 0.347271 0.236836 0.102396 0.246689 0.167502 0.204139 0.037515 0.084078 0.140926 0.087601 0.146995 0.081706 0.104455 0.054959 0.032479 0.109628 0.010014 0.154571 0.241647 0.179341 0.210769 0.111244 0.164641 0.110584 0.104511 0.049389 0.117216 0.170746 0.241085 0.253553 0.131755 0.196196 0.185870 0.183820
0.218249 0.371795 0.314566 0.395963 0.330275 0.310081 0.240472 0.058475 0.111937 -0.044194 -0.013046 0.096793 0.142285 -0.059145 -0.093851 -0.133641 -0.158847 -0.032513 0.025950 -0.101629 0.007626 -0.044434 -0.032264 0.068824 0.073480 0.119293 0.049655 0.020370 0.009515 0.109568 0.086405 0.206360 0.125614 0.179551 0.157311 0.276358 0.325221 0.551394 0.563467 0.521583 0.406804 0.399332 0.504003 0.508178 0.632519 0.670883 0.611261 0.468910 0.518845 0.425234 0.445890 0.432794 0.482701 0.424398 0.428631 0.468711 0.530456 0.387615 0.420616 0.470930 0.335064 0.381593 0.366044 0.264325 0.138481 0.304398 0.223435 0.227376 0.062677 0.086123 0.150275 0.100268 0.158608 0.085492 0.102686 0.072199 0.070077 0.106253 0.004409 0.140184 0.216746 0.184821 0.221364 0.143349 0.186481 0.127788 0.097476 0.025082 0.091666 0.114252 0.182898 0.212677 0.113756 0.173618 0.184193 0.194062
0.177288 0.323477 0.277087 0.340885 0.286931 0.247716 0.204518 0.057795 0.108240 -0.038264 -0.014046 0.093887 0.164736 -0.009153 -0.046136 -0.119245 -0.169653 -0.078570 -0.035701 -0.200840 -0.132647 -0.121056 -0.117448 -0.027959 -0.038976 0.118379 0.080966 0.016110 -0.007922 0.016747 -0.031923 0.114495 0.079860 0.136494 0.113829 0.267792 0.331239 0.557765 0.571004 0.570773 0.436116 0.486369 0.594324 0.594609 0.722633 0.745208 0.688713 0.572645 0.619001 0.477231 0.465720 0.443588 0.494440 0.423132 0.463392 0.472126 0.497599 0.296270 0.348100 0.373847 0.264750 0.350532 0.317498 0.248222 0.126120 0.336661 0.229825 0.232453 0.056956 0.054712 0.142451 0.136239 0.200035 0.105465 0.128187 0.123434 0.126049 0.096936 0.018966 0.131931 0.229879 0.197944 0.259314 0.142077 0.142358 0.078673 0.039309 -0.062072 -0.008645 0.041868 0.103965 0.184937 0.113809 0.169376 0.167266 0.130281
0.162344 0.316638 0.274695 0.357562 0.306880 0.229095 0.170416 0.012439 0.076094 -0.078068 -0.054471 0.048356 0.159538 0.012110 -0.034109 -0.056390 -0.119236 -0.000279 0.051076 -0.149289 -0.106436 -0.153776 -0.137269 -0.048968 -0.070268 0.119096 0.076595 0.016436 -0.024694 0.072825 0.024061 0.115453 0.045374 0.098535 0.053696 0.215071 0.278152 0.501951 0.569940 0.600683 0.476672 0.522967 0.605596 0.528832 0.637496 0.658256 0.603012 0.542742 0.611279 0.448877 0.441683 0.393530 0.416378 0.366426 0.406929 0.424548 0.479097 0.311610 0.389653 0.405303 0.312280 0.421020 0.385641 0.305665 0.175637 0.365648 0.262417 0.263352 0.096379 0.090751 0.156587 0.174806 0.233485 0.133750 0.135871 0.127451 0.147365 0.109954 0.052937 0.103729 0.180466 0.133689 0.200124 0.134781 0.141108 0.050355 0.005511 -0.104565 -0.093996 -0.045060 0.014537 0.121410 0.077083 0.141862 0.163039 0.088583
